<svg width="138" height="142" version="1.1" xmlns="http://www.w3.org/2000/svg" desc="Created with imagetracer.js version 1.2.6" ><path fill="rgb(241,222,1)" stroke="rgb(241,222,1)" stroke-width="1" opacity="0.9803921568627451" d="M 114.5 11 L 119 14.5 L 117.5 15 L 115.5 14 L 115.5 16 Q 113.7 12.9 112 14.5 L 115 13.5 L 114.5 11 Z " /><path fill="rgb(240,222,36)" stroke="rgb(240,222,36)" stroke-width="1" opacity="0.996078431372549" d="M 42.5 9 L 98 9.5 L 97 10.5 L 97 128.5 L 97.5 130 L 42 129.5 L 43 127 L 96 127 L 96 11 L 43.5 11 L 42.5 9 Z " /><path fill="rgb(240,222,36)" stroke="rgb(240,222,36)" stroke-width="1" opacity="0.996078431372549" d="M 108.5 9 Q 117.2 7.3 120 11.5 L 122 15.5 L 122 122.5 L 117.5 129 L 108.5 130 L 109 128.5 L 109.5 127 L 117.5 127 L 119 125.5 L 119 13.5 Q 117.3 9.3 109.5 11 L 108.5 9 Z " /><path fill="rgb(240,222,36)" stroke="rgb(240,222,36)" stroke-width="1" opacity="0.996078431372549" d="M 28.5 27 L 29 29.5 L 26.5 31 L 26.5 30 Q 29.4 30.7 28.5 27 Z " /><path fill="rgb(240,222,36)" stroke="rgb(240,222,36)" stroke-width="1" opacity="0.996078431372549" d="M 28.5 53 L 29 55.5 L 26.5 57 L 26.5 56 Q 29.4 56.7 28.5 53 Z " /><path fill="rgb(240,222,36)" stroke="rgb(240,222,36)" stroke-width="1" opacity="0.996078431372549" d="M 28.5 79 L 29 81.5 L 25.5 83 L 25.5 82 Q 29.5 83.1 28.5 79 Z " /><path fill="rgb(240,222,36)" stroke="rgb(240,222,36)" stroke-width="1" opacity="0.996078431372549" d="M 28.5 105 Q 31.5 106.5 28.5 108 L 28.5 105 Z " /><path fill="rgb(0,0,0)" stroke="rgb(0,0,0)" stroke-width="1" opacity="0" d="M 0 0 L 138 0 L 138 142 L 0 142 L 0 0 Z M 21 6 L 18 7 Q 14 9 15 15 L 8 19 L 5 25 L 5 45 L 6 46 L 5 51 Q 3 57 6 59 L 5 62 L 5 70 L 6 71 L 5 76 Q 3 82 6 84 L 5 89 Q 3 95 6 97 L 5 102 Q 4 109 7 113 L 14 117 L 16 120 L 16 129 L 19 131 L 118 131 L 121 129 L 123 126 L 123 13 L 122 11 L 119 7 Q 112 9 111 6 L 96 6 L 95 7 L 39 7 L 38 6 L 21 6 Z " /><path fill="rgb(241,225,179)" stroke="rgb(241,225,179)" stroke-width="1" opacity="0.7764705882352941" d="M 20.5 6 L 37.5 6 L 38.5 7 L 94.5 7 L 95.5 6 L 110.5 6 Q 112.3 8.8 118.5 7 L 122 10.5 L 123 12.5 L 123 125.5 L 120.5 129 L 117.5 131 L 18.5 131 L 16 128.5 L 16 119.5 L 13.5 117 L 7 112.5 Q 4.1 108.9 5 101.5 L 6 96.5 Q 3.2 94.8 5 88.5 L 6 83.5 Q 3.2 81.8 5 75.5 L 6 70.5 L 5 69.5 L 5 61.5 L 6 58.5 Q 3.2 56.7 5 50.5 L 6 45.5 L 5 44.5 L 5 24.5 L 8 19 L 15 14.5 Q 14.2 8.7 17.5 7 L 20.5 6 Z M 18 9 L 18 17 L 13 19 L 8 24 L 8 32 L 9 33 L 8 38 Q 6 44 9 46 L 8 51 Q 6 57 9 59 L 8 63 L 8 71 L 9 72 L 8 76 L 8 84 L 9 85 L 8 89 L 8 97 L 9 98 L 8 102 Q 7 108 9 112 Q 11 116 17 116 L 18 118 L 18 129 L 20 130 L 116 130 L 118 129 L 122 123 L 122 16 L 120 12 L 117 9 L 18 9 Z " /><path fill="rgb(241,225,179)" stroke="rgb(241,225,179)" stroke-width="1" opacity="0.7764705882352941" d="M 14 22 L 18 22 L 18 30 L 13.5 32 L 12 30.5 L 12 24 Q 15 25 14 22 Z " /><path fill="rgb(241,225,179)" stroke="rgb(241,225,179)" stroke-width="1" opacity="0.7764705882352941" d="M 12 38 L 17 38 L 17 39.5 L 18 41.5 L 17 44 L 12 44 L 12 42.5 L 11 40.5 L 12 38 Z " /><path fill="rgb(241,225,179)" stroke="rgb(241,225,179)" stroke-width="1" opacity="0.7764705882352941" d="M 12 51 L 18 53.5 Q 19.1 56.8 16.5 56 L 12 57 L 12 51 Z " /><path fill="rgb(241,225,179)" stroke="rgb(241,225,179)" stroke-width="1" opacity="0.7764705882352941" d="M 12 64 L 17 64 L 17 65.5 L 18 68.5 Q 16.6 71.3 12 70 L 12 64 Z " /><path fill="rgb(241,225,179)" stroke="rgb(241,225,179)" stroke-width="1" opacity="0.7764705882352941" d="M 12 76 L 18 79.5 L 16.5 82 L 12 83 L 11 79.5 L 12 76 Z " /><path fill="rgb(241,225,179)" stroke="rgb(241,225,179)" stroke-width="1" opacity="0.7764705882352941" d="M 13.5 89 L 17 90 L 18 93.5 Q 16.7 97 12 96 L 11 92.5 L 13.5 89 Z " /><path fill="rgb(241,225,179)" stroke="rgb(241,225,179)" stroke-width="1" opacity="0.7764705882352941" d="M 12 102 L 18 105.5 L 18 112 L 14.5 112 L 12 109.5 L 12 102 Z " /><path fill="rgb(223,186,49)" stroke="rgb(223,186,49)" stroke-width="1" opacity="0.996078431372549" d="M 41.5 9 L 43 10.5 L 43 128.5 L 39.5 130 L 39.5 129 L 41 128.5 L 41.5 9 Z " /><path fill="rgb(223,186,49)" stroke="rgb(223,186,49)" stroke-width="1" opacity="0.996078431372549" d="M 98.5 9 L 107.5 9 L 109 10.5 L 109 128.5 L 107.5 130 L 98.5 130 L 97 128.5 L 97 10.5 L 98.5 9 Z M 100 10 L 98 12 L 98 128 L 100 129 Q 106 131 108 128 L 108 11 L 108 10 L 100 10 Z " /><path fill="rgb(223,186,49)" stroke="rgb(223,186,49)" stroke-width="1" opacity="0.996078431372549" d="M 17.5 17 L 18 18.5 L 17 20.5 L 17.5 22 L 14 22 Q 15 25 12 24 L 12 30.5 Q 13.3 33.3 14.5 31 L 18 30 L 16.5 33 Q 12 32 11 34.5 L 11.5 37 Q 12.8 34.8 14 37.5 L 12 38 L 11 41.5 L 12 44 L 17 44 L 17 42.5 L 18 42.5 Q 19.3 46.3 15.5 45 Q 14.4 47.7 11 47 L 11.5 50 Q 13.3 47.3 15 51.5 L 13.5 51 L 12 51.5 L 12 57 L 17.5 56 L 15.5 59 Q 11.8 58.3 11 60.5 Q 9.8 64.3 13.5 63 L 13.5 64 L 12 64.5 L 12 70 L 17.5 69 L 18 71 L 11 73 L 11.5 76 L 13 75.5 L 11 79.5 L 12 83 L 17.5 81 L 18 82.5 L 11 86.5 L 11.5 88 Q 12.8 85.8 14 88.5 L 11 93.5 L 12 96 Q 16.3 97 17.5 94 L 18 97 L 11 99 L 11.5 102 L 13 101.5 Q 10.2 103.3 12 109.5 Q 13.2 112.8 17 112 L 18 116.5 L 16.5 116 Q 11 115.6 9 111.5 Q 6.7 108.3 8 101.5 L 9 97.5 L 8 96.5 L 8 88.5 L 9 84.5 L 8 83.5 L 8 75.5 L 9 71.5 L 8 70.5 L 8 62.5 L 9 58.5 Q 6.3 56.7 8 50.5 L 9 45.5 Q 6.3 43.8 8 37.5 L 9 32.5 L 8 31.5 L 8 23.5 Q 11 18.5 17.5 17 Z " /><path fill="rgb(223,186,49)" stroke="rgb(223,186,49)" stroke-width="1" opacity="0.996078431372549" d="M 25.5 24 Q 30.9 22.1 30 25.5 L 31 30.5 Q 29 33.5 23.5 33 Q 20.8 31.8 22 26.5 L 25.5 24 Z M 28 27 L 28 30 L 25 31 L 29 31 L 30 29 Q 31 26 28 27 Z " /><path fill="rgb(223,186,49)" stroke="rgb(223,186,49)" stroke-width="1" opacity="0.996078431372549" d="M 24.5 37 L 26.5 38 L 30 37 L 31 43.5 L 28.5 46 L 22.5 47 Q 19.8 45.8 22 44.5 Q 20.8 38.3 24.5 37 Z " /><path fill="rgb(223,186,49)" stroke="rgb(223,186,49)" stroke-width="1" opacity="0.996078431372549" d="M 24.5 50 Q 29.8 48.8 31 51.5 Q 32.3 56.8 29.5 58 L 22 59 Q 20.3 51.9 24.5 50 Z M 28 53 L 28 56 L 25 57 L 29 57 L 30 55 Q 31 52 28 53 Z " /><path fill="rgb(223,186,49)" stroke="rgb(223,186,49)" stroke-width="1" opacity="0.996078431372549" d="M 24.5 63 Q 29.8 61.8 31 64.5 L 32 67.5 L 29.5 71 L 23.5 72 L 22 70.5 L 22 64 L 24.5 63 Z M 28 67 L 28 69 L 30 68 L 28 67 Z " /><path fill="rgb(223,186,49)" stroke="rgb(223,186,49)" stroke-width="1" opacity="0.996078431372549" d="M 24.5 76 Q 30.6 74.8 30 77.5 L 31 81.5 L 30 84 L 22 85 Q 20.3 77.9 24.5 76 Z M 28 79 L 28 82 L 30 81 Q 31 78 28 79 Z M 26 82 L 26 83 L 28 83 L 26 82 Z " /><path fill="rgb(223,186,49)" stroke="rgb(223,186,49)" stroke-width="1" opacity="0.996078431372549" d="M 25.5 88 L 27.5 89 Q 29.3 86.3 31 90.5 L 32 93.5 L 29.5 97 L 22 98 L 22 90.5 L 23.5 89 L 25.5 88 Z M 30 92 L 28 95 L 30 94 L 30 92 Z " /><path fill="rgb(223,186,49)" stroke="rgb(223,186,49)" stroke-width="1" opacity="0.996078431372549" d="M 25.5 101 L 31 103.5 L 30 110 L 23.5 110 L 23 108.5 L 22 104.5 L 25.5 101 Z M 28 105 L 28 108 L 30 107 Q 31 104 28 105 Z " /><path fill="rgb(223,186,49)" stroke="rgb(223,186,49)" stroke-width="1" opacity="0.996078431372549" d="M 15.5 103 L 18 104.5 L 16.5 104 L 15.5 103 Z " /><path fill="rgb(241,222,1)" stroke="rgb(241,222,1)" stroke-width="1" opacity="1" d="M 45 11 L 95 11 L 95 127 L 45 127 L 45 11 Z " /><path fill="rgb(241,222,1)" stroke="rgb(241,222,1)" stroke-width="1" opacity="1" d="M 111 11 L 114.5 12 L 117 11 L 118 13.5 L 117.5 15 L 119 15.5 L 119 123.5 L 117 127 L 111.5 127 L 111 126.5 L 111 11 Z M 116 12 Q 114 15 117 14 L 116 12 Z " /><path fill="rgb(239,220,5)" stroke="rgb(239,220,5)" stroke-width="1" opacity="1" d="M 44.5 11 L 45 126.5 L 44 126.5 L 44.5 11 Z " /><path fill="rgb(239,220,6)" stroke="rgb(239,220,6)" stroke-width="1" opacity="1" d="M 43.5 11 L 44 126.5 L 43 126.5 L 43.5 11 Z " /><path fill="rgb(239,220,6)" stroke="rgb(239,220,6)" stroke-width="1" opacity="1" d="M 95.5 11 L 96 126.5 L 95 126.5 L 95.5 11 Z " /><path fill="rgb(239,220,6)" stroke="rgb(239,220,6)" stroke-width="1" opacity="1" d="M 109 11 L 111 11.5 L 111 127 L 109 126.5 L 109 11 Z " /><path fill="rgb(239,220,6)" stroke="rgb(239,220,6)" stroke-width="1" opacity="1" d="M 117.5 12 L 118.5 14 L 117.5 12 Z " /><path fill="rgb(239,220,6)" stroke="rgb(239,220,6)" stroke-width="1" opacity="1" d="M 29.5 67 L 28.5 69 L 29.5 67 Z " /><path fill="rgb(239,220,6)" stroke="rgb(239,220,6)" stroke-width="1" opacity="1" d="M 29.5 92 L 30 93.5 L 28 94.5 L 29.5 92 Z " /><path fill="rgb(239,220,6)" stroke="rgb(239,220,6)" stroke-width="1" opacity="1" d="M 118.5 124 L 119 125.5 L 117 126.5 L 118.5 124 Z " /><path fill="rgb(198,141,87)" stroke="rgb(198,141,87)" stroke-width="1" opacity="0.996078431372549" d="M 19.5 9 L 40.5 9 L 41 9.5 L 41 129 L 38.5 130 L 21.5 130 L 18 129 L 17 112.5 Q 19.8 110.8 18 104.5 L 12.5 101 L 10 102.5 L 11 99 L 18 97 Q 19.5 91.6 16.5 90 Q 13.2 91.1 14 88.5 L 11 87.5 L 12.5 85 Q 17.3 85.8 18 82.5 Q 19.9 77.1 16.5 78 L 12.5 75 L 10 76.5 L 11 73 L 18 71 Q 19.5 65.6 16.5 64 L 11 63 L 10.5 65 L 10 63.5 L 12.5 59 Q 17.3 59.8 18 56.5 Q 20.1 50.6 15.5 52 L 12.5 49 L 10 50.5 L 11 47 L 18 45 Q 19.5 39.6 16.5 38 L 12.5 36 L 11 36.5 L 12.5 33 Q 17 34 18 31.5 Q 19.7 23.3 17 19.5 L 18 18.5 L 18 10.5 L 19.5 9 Z M 26 24 L 22 27 Q 21 32 24 33 Q 29 34 31 31 L 30 26 Q 31 22 26 24 Z M 25 37 Q 21 38 22 45 Q 20 46 23 47 L 29 46 L 31 44 L 30 37 L 27 38 L 25 37 Z M 25 50 Q 20 52 22 59 L 30 58 Q 32 57 31 52 Q 30 49 25 50 Z M 25 63 L 22 64 L 22 71 L 24 72 L 30 71 L 32 68 L 31 65 Q 30 62 25 63 Z M 25 76 Q 20 78 22 85 L 30 84 L 31 82 L 30 78 Q 31 75 25 76 Z M 26 88 L 24 89 L 22 91 L 22 98 L 30 97 L 32 94 L 31 91 Q 29 86 28 89 L 26 88 Z M 26 101 L 22 105 L 23 109 L 24 110 L 30 110 L 31 104 L 26 101 Z " /><path fill="rgb(198,141,87)" stroke="rgb(198,141,87)" stroke-width="1" opacity="0.996078431372549" d="M 99.5 10 L 107.5 10 L 108 10.5 L 108 127.5 Q 106.3 130.8 99.5 129 L 98 127.5 L 98 11.5 L 99.5 10 Z " /></svg>